<svg width="146" height="49" viewBox="0 0 146 49" fill="none" xmlns="http://www.w3.org/2000/svg">
<path fill-rule="evenodd" clip-rule="evenodd" d="M13.2982 2.42749C4.33836 9.08934 -1.84528 23.3232 1.24773 34.8648C2.48044 39.4641 5.04471 43.4551 9.21316 45.9953C20.4075 52.817 35.3978 47.5256 38.8813 35.1464C42.1376 23.5747 35.8692 9.14125 27.1254 2.66546C22.5527 -0.721329 17.8644 -0.967682 13.2982 2.42749ZM7.73734 24.9289V31.9783H9.78877C10.7234 31.9783 11.4834 31.6495 12.0741 30.9912C12.6622 30.3358 12.9576 29.4871 12.9576 28.448C12.9576 27.4116 12.6622 26.5658 12.0741 25.9105C11.4834 25.2551 10.7234 24.9289 9.78877 24.9289H7.73734ZM4.98218 34.3688V22.5386H9.11246C10.2937 22.5386 11.2097 22.6337 11.8595 22.8271C12.5093 23.0178 13.1082 23.3324 13.6529 23.774C14.3566 24.3428 14.8883 25.0241 15.2509 25.815C15.6134 26.6061 15.7931 27.4864 15.7931 28.448C15.7931 29.5044 15.5731 30.46 15.1328 31.3204C14.6923 32.1805 14.0534 32.8966 13.2208 33.4711C12.7483 33.7943 12.2271 34.0223 11.6551 34.161C11.0832 34.2995 10.2347 34.3688 9.11246 34.3688H4.98218ZM16.9376 34.3688V22.5386H24.3004V24.721H19.6928V27.1286H24.0911V29.3284H19.6928V32.1518H24.4295V34.3688H16.9376ZM30.2807 34.4726L25.2859 22.5386H28.2346L30.9549 29.4149L33.8575 22.5386H36.8385L31.473 34.4726H30.2807Z" fill="#008F02"/>
<path fill-rule="evenodd" clip-rule="evenodd" d="M49.3005 22.6864V10.4541H52.1361V22.6864H49.3005V22.6864ZM57.0797 15.0001V22.6864H54.357V10.4541H56.7708L62.6704 17.7464V10.4541H65.3933V22.6864H63.237L57.0797 15.0001V15.0001ZM77.1844 21.6597C76.5238 22.0806 75.8472 22.3908 75.1544 22.5969C74.4615 22.7998 73.7337 22.9015 72.974 22.9015C72.1146 22.9015 71.3224 22.7552 70.6028 22.4655C69.8804 22.1731 69.2496 21.7433 68.7097 21.1792C68.1538 20.5909 67.7296 19.9014 67.4396 19.1165C67.1469 18.3284 67.0018 17.4838 67.0018 16.5793C67.0018 14.6779 67.5712 13.1465 68.7124 11.9824C69.8536 10.8214 71.3601 10.239 73.2315 10.239C73.9032 10.239 74.5581 10.3197 75.1947 10.4838C75.8339 10.648 76.4648 10.899 77.0877 11.2363V14.1078C76.4808 13.6688 75.8686 13.3405 75.2564 13.1257C74.6415 12.9078 74.0291 12.8004 73.4142 12.8004C72.3053 12.8004 71.4299 13.1346 70.7934 13.8062C70.1571 14.4778 69.8377 15.4001 69.8377 16.5793C69.8377 17.7226 70.1412 18.636 70.7506 19.3165C71.3574 19.9999 72.1764 20.3401 73.2049 20.3401C73.8653 20.3401 74.5286 20.212 75.1947 19.9523C75.8604 19.6927 76.5238 19.3075 77.1844 18.8002V21.6597ZM89.1418 10.4541V17.4567C89.1418 19.1701 88.6853 20.5044 87.7696 21.4626C86.8539 22.4208 85.5757 22.9015 83.935 22.9015C82.2972 22.9015 81.0215 22.4208 80.1058 21.4626C79.1904 20.5044 78.7339 19.1701 78.7339 17.4567V10.4541H81.505V17.3344C81.505 18.3076 81.7143 19.0509 82.1334 19.5672C82.552 20.0835 83.1617 20.3401 83.9567 20.3401C84.7488 20.3401 85.3529 20.0835 85.7666 19.5701C86.1798 19.0598 86.3866 18.3136 86.3866 17.3344V10.4541H89.1418V10.4541ZM94.0074 20.4478H95.6027C96.3169 20.4478 96.8243 20.3372 97.1277 20.1165C97.431 19.8925 97.5843 19.5255 97.5843 19.0148C97.5843 18.4896 97.4232 18.1015 97.1009 17.8508C96.7788 17.6 96.2738 17.4749 95.5864 17.4749H94.0074V20.4478ZM95.4307 15.2898C95.9275 15.2898 96.2979 15.1853 96.5424 14.9733C96.7869 14.7645 96.9077 14.4481 96.9077 14.0213C96.9077 13.5495 96.7842 13.1971 96.537 12.9675C96.2928 12.7376 95.9221 12.621 95.4307 12.621H94.0074V15.2898H95.4307ZM91.2363 22.6864V10.4541H95.2964C96.7439 10.4541 97.8369 10.7167 98.5725 11.2452C99.3111 11.7734 99.6787 12.5556 99.6787 13.5942C99.6787 14.1346 99.5553 14.6093 99.3057 15.0182C99.0558 15.4271 98.6905 15.7495 98.2153 15.9881C98.9832 16.257 99.558 16.654 99.9338 17.1822C100.312 17.7104 100.5 18.3763 100.5 19.1791C100.5 20.3523 100.138 21.2297 99.4156 21.8118C98.6935 22.3938 97.6059 22.6864 96.1531 22.6864H91.2363V22.6864ZM105.331 18.2089H108.58L107.039 13.5526L105.331 18.2089V18.2089ZM100.723 22.6864L105.522 10.4541H108.699L112.984 22.6864H110.065L109.278 20.3044H104.536L103.656 22.6864H100.723V22.6864ZM115.538 22.6864V12.7287H111.897V10.4541H122.079V12.7287H118.438V22.6864H115.538V22.6864ZM125.559 16.5793C125.559 17.6688 125.855 18.5672 126.443 19.2686C127.034 19.9702 127.785 20.3223 128.698 20.3223C129.614 20.3223 130.369 19.9702 130.959 19.2686C131.547 18.5672 131.843 17.6688 131.843 16.5793C131.843 15.4837 131.547 14.5822 130.959 13.8779C130.369 13.1703 129.614 12.8182 128.698 12.8182C127.785 12.8182 127.034 13.1703 126.443 13.8779C125.855 14.5822 125.559 15.4837 125.559 16.5793ZM122.724 16.5793C122.724 15.6689 122.869 14.83 123.156 14.0569C123.446 13.284 123.876 12.5943 124.448 11.9884C125.003 11.4064 125.635 10.9704 126.341 10.687C127.047 10.4002 127.831 10.2572 128.698 10.2572C129.574 10.2572 130.366 10.4003 131.075 10.6899C131.784 10.9796 132.415 11.4123 132.971 11.9884C133.537 12.5943 133.967 13.284 134.257 14.0569C134.55 14.83 134.695 15.6689 134.695 16.5793C134.695 17.4838 134.55 18.3195 134.257 19.0925C133.967 19.8658 133.537 20.5492 132.971 21.1432C132.409 21.7252 131.773 22.1642 131.061 22.4595C130.352 22.7552 129.563 22.9015 128.698 22.9015C127.836 22.9015 127.055 22.7552 126.349 22.4655C125.643 22.1731 125.009 21.7312 124.448 21.1432C123.881 20.5492 123.451 19.8658 123.161 19.0925C122.869 18.3195 122.724 17.4838 122.724 16.5793V16.5793ZM140.449 15.4688C140.959 15.4688 141.338 15.3495 141.588 15.1136C141.837 14.8778 141.961 14.5197 141.961 14.0361C141.961 13.5763 141.832 13.2242 141.571 12.9824C141.311 12.7406 140.938 12.621 140.449 12.621H139.125V15.4688H140.449ZM136.37 22.6864V10.4541H140.433C141.926 10.4541 143.03 10.7437 143.744 11.3198C144.455 11.8959 144.813 12.7914 144.813 14.0031C144.813 14.6779 144.654 15.257 144.34 15.7373C144.026 16.218 143.545 16.6239 142.895 16.9552C143.169 17.0659 143.414 17.2509 143.631 17.5105C143.849 17.7702 144.037 18.0986 144.2 18.4956L145.957 22.6864H142.85L141.448 19.1612C141.222 18.6 140.965 18.2151 140.677 18.006C140.387 17.794 139.979 17.6896 139.447 17.6896C139.407 17.6896 139.351 17.6929 139.284 17.6985C139.214 17.7045 139.163 17.7074 139.125 17.7074V22.6864H136.37V22.6864Z" fill="#008F02"/>
<path d="M58.8921 36.1636H55.2646V46H52.3511V36.1636H48.79V33.9141H58.8921V36.1636ZM68.4745 40.8784H63.8925V43.7588H69.3046V46H60.9789V33.9141H69.3212V36.1636H63.8925V38.7119H68.4745V40.8784ZM77.5755 42.7876C77.5755 42.3615 77.4233 42.0295 77.1189 41.7915C76.8201 41.5535 76.2916 41.3073 75.5335 41.0527C74.7754 40.7982 74.1556 40.5519 73.6741 40.314C72.108 39.5448 71.325 38.4878 71.325 37.1431C71.325 36.4735 71.5187 35.8841 71.9061 35.375C72.299 34.8604 72.8523 34.4619 73.5662 34.1797C74.2801 33.8919 75.0825 33.748 75.9734 33.748C76.8423 33.748 77.6198 33.903 78.306 34.2129C78.9977 34.5228 79.5345 34.9655 79.9163 35.541C80.2981 36.111 80.4891 36.764 80.4891 37.5H77.5838C77.5838 37.0075 77.4316 36.6257 77.1272 36.3545C76.8284 36.0833 76.4217 35.9478 75.907 35.9478C75.3868 35.9478 74.9746 36.064 74.6702 36.2964C74.3714 36.5233 74.222 36.8138 74.222 37.168C74.222 37.4779 74.388 37.7601 74.72 38.0146C75.0521 38.2637 75.6359 38.5238 76.4715 38.7949C77.3071 39.0605 77.9933 39.3483 78.5301 39.6582C79.8361 40.4108 80.4891 41.4484 80.4891 42.771C80.4891 43.828 80.0906 44.658 79.2938 45.2612C78.4969 45.8644 77.4039 46.166 76.0149 46.166C75.0354 46.166 74.1473 45.9917 73.3504 45.6431C72.5591 45.2889 71.9614 44.8075 71.5574 44.1987C71.159 43.5845 70.9598 42.8789 70.9598 42.082H73.8816C73.8816 42.7295 74.0477 43.2082 74.3797 43.5181C74.7173 43.8224 75.2623 43.9746 76.0149 43.9746C76.4964 43.9746 76.8755 43.8722 77.1521 43.6675C77.4344 43.4572 77.5755 43.1639 77.5755 42.7876ZM92.321 36.1636H88.6936V46H85.78V36.1636H82.2189V33.9141H92.321V36.1636ZM97.5123 46H94.607V33.9141H97.5123V46ZM110.481 46H107.584L103.301 38.4795V46H100.388V33.9141H103.301L107.576 41.4346V33.9141H110.481V46ZM123.069 44.5059C122.621 45.0039 121.965 45.4051 121.101 45.7095C120.238 46.0138 119.292 46.166 118.263 46.166C116.68 46.166 115.415 45.6818 114.469 44.7134C113.523 43.745 113.017 42.3975 112.95 40.6709L112.942 39.625C112.942 38.4352 113.152 37.3976 113.573 36.5122C113.993 35.6213 114.594 34.9378 115.374 34.4619C116.16 33.9805 117.067 33.7397 118.097 33.7397C119.602 33.7397 120.769 34.0856 121.6 34.7773C122.435 35.4635 122.922 36.4901 123.06 37.8569H120.255C120.155 37.1818 119.939 36.7004 119.607 36.4126C119.275 36.1248 118.805 35.981 118.196 35.981C117.466 35.981 116.901 36.2909 116.503 36.9106C116.104 37.5304 115.902 38.4159 115.897 39.5669V40.2974C115.897 41.5037 116.102 42.4113 116.511 43.02C116.926 43.6232 117.576 43.9248 118.462 43.9248C119.22 43.9248 119.784 43.756 120.155 43.4185V41.5425H118.13V39.542H123.069V44.5059Z" fill="white"/>
</svg>
